<svg width="30" height="30" viewBox="0 0 30 30" fill="none" xmlns="http://www.w3.org/2000/svg">
<g clip-path="url(#clip0)">
<path d="M29.2195 25.5074L17.4559 13.7437L3.71217 0H2.63809L2.41877 0.557285C1.83993 2.02822 1.5926 3.53268 1.70364 4.90781C1.8302 6.47531 2.42569 7.8324 3.42583 8.83254L14.1549 19.5616L15.5701 18.1465L25.4891 29.2379C26.4758 30.2246 28.1742 30.2832 29.2195 29.2379C30.2481 28.2093 30.2481 26.5359 29.2195 25.5074Z" fill="white"/>
<path d="M9.18311 17.0767L0.780117 25.4796C-0.24832 26.5081 -0.24832 28.1816 0.780117 29.21C1.75711 30.187 3.44725 30.2733 4.51049 29.21L12.9135 20.807L9.18311 17.0767Z" fill="white"/>
<path d="M28.7265 4.99509L23.9598 9.76169L22.7163 8.51821L27.483 3.75155L26.2395 2.50807L21.4729 7.27468L20.2294 6.0312L24.9961 1.2646L23.7527 0.0211792L17.5353 6.23856C16.7747 6.99917 16.3205 8.00909 16.2563 9.08241C16.2401 9.35434 16.1784 9.62182 16.0762 9.87624L20.115 13.915C20.3694 13.8127 20.6369 13.7511 20.9088 13.7349C21.9821 13.6708 22.9921 13.2166 23.7527 12.4559L29.97 6.23862L28.7265 4.99509Z" fill="white"/>
</g>
<defs>
<clipPath id="clip0">
<rect width="30" height="30" fill="white"/>
</clipPath>
</defs>
</svg>
