<svg width="24" height="24" viewBox="0 0 24 24" fill="none" xmlns="http://www.w3.org/2000/svg">
<g clip-path="url(#clip0)">
<path d="M21.2978 6.10116C21.2918 6.10116 21.286 6.10125 21.28 6.10148C21.0261 6.10716 20.822 6.31481 20.822 6.57009C20.822 6.59789 20.8244 6.62512 20.829 6.65152V21.8278C20.829 22.5086 20.2753 23.0625 19.5948 23.0625H4.68339V21.6469H4.8588C5.58808 21.6469 6.19886 21.0376 6.19886 20.3072C6.19886 19.5682 5.59769 18.967 4.8587 18.967H4.68339V16.1603H4.8588C5.58705 16.1603 6.19886 15.5506 6.19886 14.8205C6.19886 14.0815 5.59769 13.4803 4.8587 13.4803H4.68339V10.6739H4.8587C5.21664 10.6739 5.55325 10.5344 5.80652 10.2812C6.0595 10.0282 6.19886 9.69178 6.19886 9.33375C6.19886 8.98744 6.06672 8.67141 5.8502 8.43333C5.60491 8.16352 5.25133 7.99387 4.8588 7.99387H4.68339V5.18719H4.8587C5.58902 5.18719 6.19886 4.57739 6.19886 3.84703C6.19886 2.98645 5.4722 2.5073 4.68339 2.5073V0.9375H19.5948C20.2754 0.9375 20.829 1.49137 20.829 2.17219V2.36367C20.8244 2.39006 20.822 2.41734 20.822 2.44509C20.822 2.70056 21.0264 2.90831 21.2806 2.91375C21.2862 2.91389 21.2931 2.91403 21.2978 2.91403C21.5566 2.91403 21.7665 2.70412 21.7665 2.44528V2.17219C21.7665 0.974437 20.7923 0 19.5948 0H4.21464C3.9558 0 3.74589 0.209906 3.74589 0.46875V2.5073H3.57034C2.8315 2.5073 2.23047 3.10833 2.23047 3.84717C2.23047 4.58602 2.8315 5.18709 3.57034 5.18709H3.74589V7.99387H3.57034C2.8315 7.99387 2.23047 8.59495 2.23047 9.3338C2.23047 10.0726 2.8315 10.6737 3.57034 10.6737H3.74589V13.4805H3.57034C2.8315 13.4805 2.23047 14.0815 2.23047 14.8204C2.23047 15.5592 2.8315 16.1603 3.57034 16.1603H3.74589V18.9671H3.57034C2.8315 18.9671 2.23047 19.5682 2.23047 20.307C2.23047 21.0458 2.8315 21.6469 3.57034 21.6469H3.74589V23.5312C3.74589 23.7901 3.9558 24 4.21464 24H19.5948C20.7923 24 21.7665 23.0256 21.7665 21.8278V6.56991C21.7665 6.31106 21.5567 6.10116 21.2978 6.10116ZM3.16797 3.84717C3.16797 3.62531 3.34848 3.4448 3.57034 3.4448H4.21375C4.21403 3.4448 4.21436 3.44484 4.21464 3.44484H4.8587C5.07634 3.44484 5.26117 3.62958 5.26117 3.84717C5.26117 4.06903 5.08066 4.24959 4.8588 4.24959H3.57034C3.34844 4.24959 3.16797 4.06908 3.16797 3.84717ZM3.16797 9.3338C3.16797 9.11194 3.34848 8.93137 3.57034 8.93137H4.21103C4.21225 8.93137 4.21342 8.93156 4.21464 8.93156H4.8587C4.9697 8.93156 5.07034 8.97666 5.14328 9.04945C5.21608 9.1223 5.26117 9.22289 5.26117 9.3338C5.26117 9.55566 5.08066 9.73622 4.8588 9.73622H3.57034C3.34844 9.73622 3.16797 9.55566 3.16797 9.3338ZM3.16797 14.8204C3.16797 14.5985 3.34848 14.418 3.57034 14.418H4.8588C5.08066 14.418 5.26117 14.5985 5.26117 14.8204C5.26117 15.0387 5.07536 15.2227 4.8587 15.2227H4.21464C4.2137 15.2227 4.21286 15.2228 4.21192 15.2228H3.57034C3.34844 15.2228 3.16797 15.0422 3.16797 14.8204ZM3.16797 20.307C3.16797 20.0851 3.34848 19.9046 3.57034 19.9046H4.8588C5.08066 19.9046 5.26117 20.0851 5.26117 20.307C5.26117 20.5252 5.07578 20.7094 4.8587 20.7094H4.21464C4.21431 20.7094 4.21403 20.7094 4.21375 20.7094H3.57034C3.34844 20.7094 3.16797 20.5289 3.16797 20.307Z" fill="white"/>
<path d="M13.0741 7.85931C12.8152 7.85931 12.6053 8.06922 12.6053 8.32806V8.5855C10.8562 8.73677 9.96732 9.72644 9.52482 10.568C9.30615 10.9839 9.17729 11.3986 9.10126 11.7391L8.92252 11.6209C8.70652 11.4782 8.41571 11.5376 8.27302 11.7536C8.13034 11.9696 8.18968 12.2604 8.40563 12.4031L9.20246 12.9296C9.27821 12.9797 9.37013 13.0073 9.46093 13.0073H16.6873C16.7797 13.0073 16.8725 12.9787 16.9493 12.9273L17.7306 12.4007C17.9453 12.256 18.002 11.9647 17.8573 11.75C17.7126 11.5353 17.4211 11.4787 17.2066 11.6232L17.0453 11.732C16.969 11.3929 16.8405 10.9811 16.6232 10.568C16.1807 9.72644 15.2919 8.73677 13.5428 8.5855V8.32806C13.5428 8.06922 13.3329 7.85931 13.0741 7.85931ZM16.1613 12.0698H9.99043C10.0463 11.778 10.1527 11.3883 10.3546 11.0043C10.8787 10.0078 11.7936 9.50252 13.0741 9.50252C15.3888 9.50252 16.0002 11.2101 16.1613 12.0698Z" fill="white"/>
<path d="M18.9941 5.43631V3.06982C18.9941 2.81098 18.7842 2.60107 18.5254 2.60107H7.90137C7.64252 2.60107 7.43262 2.81098 7.43262 3.06982V5.43626C7.43262 5.69511 7.64252 5.90501 7.90137 5.90501H18.5254C18.7842 5.90506 18.9941 5.69515 18.9941 5.43631ZM18.0566 4.96756H8.37012V3.53857H18.0566V4.96756H18.0566Z" fill="white"/>
<path d="M18.7307 14.8564C18.7307 14.5976 18.5208 14.3877 18.2619 14.3877H7.87012C7.61127 14.3877 7.40137 14.5976 7.40137 14.8564C7.40137 15.1153 7.61127 15.3252 7.87012 15.3252H18.2619C18.5208 15.3252 18.7307 15.1153 18.7307 14.8564Z" fill="white"/>
<path d="M21.7305 4.35419C21.625 4.10121 21.3856 4.01735 21.1814 4.0743C20.935 4.14297 20.7381 4.40768 20.8647 4.71283C20.9735 4.97486 21.2309 5.06078 21.4396 4.99324C21.6757 4.91678 21.8522 4.65119 21.7305 4.35419Z" fill="white"/>
<path d="M13.7215 17.9327C13.5747 17.9785 13.4746 18.1145 13.4746 18.2683V20.6829C13.4746 20.8771 13.632 21.0345 13.8262 21.0345C14.0204 21.0345 14.1777 20.8771 14.1777 20.6829V19.3961L15.1696 20.8324C15.271 20.9788 15.4408 21.041 15.6023 20.9904C15.7667 20.9391 15.8729 20.7864 15.8729 20.598L15.8503 18.2604C15.8484 18.0663 15.6893 17.9118 15.4954 17.9122C15.3012 17.9141 15.1453 18.0731 15.1472 18.2672L15.1599 19.581L14.1154 18.0685C14.0281 17.942 13.8686 17.887 13.7215 17.9327Z" fill="white"/>
<path d="M9.83275 17.9129C9.649 17.9022 9.48039 18.0177 9.42353 18.193C9.42222 18.1971 9.42095 18.2012 9.41978 18.2053L9.03297 19.5623L8.63158 18.2018C8.63036 18.1975 8.629 18.1933 8.62764 18.1892C8.56886 18.0144 8.39973 17.9012 8.21533 17.9133C8.03134 17.9257 7.87848 18.0608 7.84295 18.2459L7.41775 20.6016C7.3833 20.7927 7.51023 20.9755 7.7013 21.01C7.89217 21.0444 8.07527 20.9176 8.10972 20.7265L8.31227 19.6042L8.64892 20.7452C8.65014 20.7494 8.65145 20.7535 8.65281 20.7576C8.7085 20.9235 8.863 21.0346 9.03789 21.0346H9.03995C9.21559 21.0337 9.37009 20.9208 9.42428 20.7537C9.42559 20.7498 9.42681 20.7457 9.42798 20.7416L9.75292 19.6018L9.96859 20.7301C10.0051 20.9208 10.1896 21.0461 10.3799 21.0094C10.5706 20.973 10.6956 20.7888 10.6592 20.5981L10.2079 18.2374C10.171 18.0567 10.0168 17.9233 9.83275 17.9129Z" fill="white"/>
<path d="M12.5637 18.6265C12.7579 18.6265 12.9153 18.4691 12.9153 18.2749C12.9153 18.0807 12.7579 17.9233 12.5637 17.9233H11.5537C11.3595 17.9233 11.2021 18.0807 11.2021 18.2749V20.6719C11.2021 20.8662 11.3595 21.0235 11.5537 21.0235H12.5637C12.7579 21.0235 12.9153 20.8662 12.9153 20.6719C12.9153 20.4777 12.7579 20.3204 12.5637 20.3204H11.9053V19.825H12.4892C12.6835 19.825 12.8408 19.6677 12.8408 19.4734C12.8408 19.2792 12.6835 19.1219 12.4892 19.1219H11.9053V18.6265H12.5637V18.6265Z" fill="white"/>
<path d="M16.9715 20.8517C17.1608 20.9726 17.3743 21.0342 17.6062 21.0345H17.6081C17.8073 21.0345 17.9946 20.9911 18.1644 20.9055C18.5832 20.6946 18.8138 20.347 18.8138 19.9267V18.2638C18.8138 18.0696 18.6564 17.9122 18.4622 17.9122C18.268 17.9122 18.1107 18.0696 18.1107 18.2638V19.9267C18.1107 20.0348 18.0795 20.161 17.8481 20.2775C17.7762 20.3137 17.6977 20.3313 17.6082 20.3313C17.6078 20.3313 17.6075 20.3313 17.6072 20.3313C17.51 20.3312 17.4259 20.3076 17.3501 20.2591C17.1692 20.1435 17.1328 20.0469 17.1328 19.9284V18.2637C17.1328 18.0695 16.9755 17.9122 16.7812 17.9122C16.587 17.9122 16.4297 18.0695 16.4297 18.2637V19.9284C16.4297 20.3114 16.612 20.6221 16.9715 20.8517Z" fill="white"/>
</g>
<defs>
<clipPath id="clip0">
<rect width="24" height="24" fill="white"/>
</clipPath>
</defs>
</svg>
