<svg width="24" height="24" fill="none" xmlns="http://www.w3.org/2000/svg"><g clip-path="url(#clip0)" fill="#fff"><path d="M21.298 6.101a.469.469 0 00-.469.55v15.177c0 .68-.554 1.235-1.234 1.235H4.683v-1.416h.176c.73 0 1.34-.61 1.34-1.34 0-.739-.601-1.34-1.34-1.34h-.176V16.16h.176c.728 0 1.34-.61 1.34-1.34 0-.739-.601-1.34-1.34-1.34h-.176v-2.806h.176c.358 0 .694-.14.948-.393a1.334 1.334 0 00.044-1.848 1.337 1.337 0 00-.992-.44h-.176V5.188h.176c.73 0 1.34-.61 1.34-1.34 0-.86-.727-1.34-1.516-1.34V.937h14.912c.68 0 1.234.554 1.234 1.235v.192a.469.469 0 00.469.55c.259 0 .469-.21.469-.469v-.273A2.174 2.174 0 0019.595 0H4.215a.469.469 0 00-.47.469v2.038H3.57c-.738 0-1.34.601-1.34 1.34 0 .739.602 1.34 1.34 1.34h.176v2.807H3.57c-.738 0-1.34.601-1.34 1.34 0 .739.602 1.34 1.34 1.34h.176v2.806H3.57c-.738 0-1.34.601-1.34 1.34 0 .74.602 1.34 1.34 1.34h.176v2.807H3.57c-.738 0-1.34.601-1.34 1.34 0 .739.602 1.34 1.34 1.34h.176v1.884c0 .26.21.469.469.469h15.38a2.174 2.174 0 002.172-2.172V6.57a.469.469 0 00-.47-.469zM3.168 3.847c0-.222.18-.402.402-.402h1.29c.217 0 .402.185.402.402 0 .222-.18.403-.402.403H3.57a.403.403 0 01-.402-.403zm0 5.487c0-.222.18-.403.402-.403h1.29a.402.402 0 110 .805H3.57a.403.403 0 01-.402-.402zm0 5.486c0-.222.18-.402.402-.402h1.29c.222 0 .402.18.402.402a.409.409 0 01-.402.403H3.57a.403.403 0 01-.402-.403zm0 5.487c0-.222.18-.402.402-.402h1.29c.222 0 .402.18.402.402a.408.408 0 01-.402.402H3.571a.403.403 0 01-.402-.402z"/><path d="M13.074 7.86a.469.469 0 00-.469.468v.258c-1.749.15-2.638 1.14-3.08 1.982a4.76 4.76 0 00-.424 1.171l-.178-.118a.469.469 0 00-.517.782l.796.527c.076.05.168.077.259.077h7.226a.476.476 0 00.262-.08l.782-.526a.469.469 0 10-.524-.778l-.162.109a4.758 4.758 0 00-.422-1.164c-.442-.842-1.331-1.831-3.08-1.982v-.258a.469.469 0 00-.469-.469zm3.087 4.21h-6.17a3.89 3.89 0 01.364-1.066c.524-.996 1.439-1.501 2.72-1.501 2.314 0 2.925 1.707 3.086 2.567zm2.833-6.634V3.07a.469.469 0 00-.469-.469H7.901a.469.469 0 00-.468.469v2.366c0 .26.21.469.468.469h10.624c.26 0 .47-.21.47-.469zm-.937-.468H8.37v-1.43h9.687v1.43zm.673 9.888a.469.469 0 00-.468-.468H7.87a.469.469 0 000 .937h10.392c.259 0 .469-.21.469-.469zm3-10.502a.453.453 0 00-.549-.28c-.246.069-.443.334-.316.639a.464.464 0 00.575.28.471.471 0 00.29-.639zm-8.008 13.579a.352.352 0 00-.247.335v2.415a.352.352 0 10.703 0v-1.287l.992 1.436a.382.382 0 00.432.158c.165-.05.27-.204.27-.392l-.022-2.338a.352.352 0 00-.703.007l.013 1.314-1.045-1.512a.352.352 0 00-.393-.136zm-3.889-.02a.406.406 0 00-.413.292l-.387 1.357-.401-1.36a.407.407 0 00-.789.044l-.425 2.356a.352.352 0 00.692.125l.202-1.123.337 1.141a.405.405 0 00.389.29h.002a.406.406 0 00.388-.293l.325-1.14.216 1.128a.352.352 0 00.69-.132l-.451-2.36a.407.407 0 00-.375-.325zm2.731.714a.352.352 0 100-.704h-1.01a.352.352 0 00-.352.352v2.397c0 .194.158.351.352.351h1.01a.352.352 0 100-.703h-.659v-.495h.584a.351.351 0 100-.703h-.584v-.495h.659zm4.407 2.225c.19.12.403.182.635.183h.002c.2 0 .387-.044.556-.13.42-.21.65-.558.65-.978v-1.663a.352.352 0 10-.703 0v1.663c0 .108-.032.234-.263.35a.521.521 0 01-.24.054.463.463 0 01-.258-.072c-.18-.116-.217-.212-.217-.33v-1.665a.351.351 0 10-.703 0v1.664c0 .383.182.694.541.924z"/></g><defs><clipPath id="clip0"><path fill="#fff" d="M0 0h24v24H0z"/></clipPath></defs></svg>