<svg width="30" height="30" fill="none" xmlns="http://www.w3.org/2000/svg"><g clip-path="url(#clip0)" fill="#fff"><path d="M29.22 25.507L17.456 13.744 3.712 0H2.638l-.22.557c-.578 1.471-.825 2.976-.714 4.35.126 1.568.722 2.925 1.722 3.926l10.729 10.729 1.415-1.416 9.92 11.092c.986.987 2.684 1.045 3.73 0a2.64 2.64 0 000-3.73zm-20.037-8.43L.78 25.48a2.64 2.64 0 000 3.73c.977.977 2.667 1.063 3.73 0l8.404-8.403-3.73-3.73zM28.727 4.995L23.96 9.762l-1.244-1.244 4.767-4.766-1.244-1.244-4.766 4.767-1.244-1.244 4.767-4.766L23.753.02l-6.218 6.22a4.389 4.389 0 00-1.279 2.843c-.016.272-.078.54-.18.794l4.039 4.039a2.53 2.53 0 01.794-.18 4.388 4.388 0 002.844-1.28L29.97 6.24l-1.243-1.244z"/></g><defs><clipPath id="clip0"><path fill="#fff" d="M0 0h30v30H0z"/></clipPath></defs></svg>